<svg width="143" height="172" viewBox="0 0 143 172" fill="none" xmlns="http://www.w3.org/2000/svg">
<g clip-path="url(#clip0_228_478)">
<path d="M20.7568 165.481C6.82009 150.984 0.444762 134.888 0.259433 116.86C-0.222423 75.673 0.11117 34.4491 0.148236 -6.77476C0.148236 -7.33235 0.407697 -7.9271 0.815421 -9.74854C7.70967 -3.02038 14.1221 3.26171 20.7568 9.76684V165.481Z" fill="#F5F8FA" fill-opacity="0.96"/>
<path d="M61.8258 53.9274V186C54.4868 185.963 48.1115 183.547 41.4767 180.201V31.4382C48.1115 38.7611 54.1903 45.4893 61.8258 53.9274Z" fill="#F5F8FA" fill-opacity="0.96"/>
<path d="M122.762 -28H143V114.369C135.883 107.381 129.434 101.025 122.762 94.4822V-28Z" fill="#F5F8FA" fill-opacity="0.96"/>
<path d="M82.2861 72.6993C88.958 79.6505 95.0738 85.9698 102.265 93.4414V179.792C96.3711 183.472 90.0329 185.963 82.2861 185.442V72.6993Z" fill="#F5F8FA" fill-opacity="0.96"/>
<path d="M102.042 72.8852C95.4075 65.6366 89.2545 58.9828 82.212 51.2882V-27.9257H102.042V72.8852Z" fill="#F5F8FA" fill-opacity="0.96"/>
<path d="M61.4551 31.4382C54.635 24.7101 48.1485 18.3165 41.4025 11.6998V-28H61.4551V31.4382Z" fill="#F5F8FA" fill-opacity="0.96"/>
<path d="M122.984 114.63C128.359 119.982 134.178 125.744 140.998 132.472C138.997 143.884 132.918 154.961 122.984 165.593V114.63Z" fill="#F5F8FA" fill-opacity="0.96"/>
</g>
<defs>
<clipPath id="clip0_228_478">
<rect width="143" height="214" fill="white" transform="translate(0 -28)"/>
</clipPath>
</defs>
</svg>
